<svg width="520" height="520" viewBox="0 0 520 520" fill="none" xmlns="http://www.w3.org/2000/svg">
<g clip-path="url(#clip0_2_2)" filter="url(#filter0_d_2_2)">
<path d="M4 0V241H5C5.00316 212.35 13.9422 183.098 25.1505 157C96.3562 -8.80188 334.948 -45.9976 453.282 90C469.937 109.141 484.407 130.602 494.421 154C505.757 180.487 514.997 209.913 515 239H516V0H4Z" fill="white"/>
<path d="M241 7.00001V8.00001C348.31 8.00001 448.008 68.5227 485.947 172C525.136 278.888 483.449 400.816 389 463.667C365.939 479.012 336.835 494.249 309 498C314.183 500.023 321.733 497.156 327 495.87C343.114 491.937 359 486.304 374 479.219C440.048 448.022 488.096 389.079 507.576 319C539.247 205.06 480.509 78.6664 373 29.3087C329.545 9.35813 287.749 6.99491 241 7.00001Z" fill="#BF9101"/>
<path d="M464 385H463C446.819 414.064 421.376 440.018 394 458.656C349.888 488.688 296.724 506.313 243 503.961C93.6957 497.423 -19.0344 354.143 10.1998 208C16.3886 177.062 28.8617 147.256 46.3333 121C67.8447 88.6737 96.1949 61.5418 130 42.2809C169.227 19.9307 212.964 8.92774 258 9.00001C295.548 9.06025 335.119 20.5234 368 38.3087C382.483 46.1424 395.112 56.351 409 65C403.907 54.9711 387.536 47.3246 378 41.8503C345.49 23.187 309.421 11.6543 272 8.91126C134.346 -1.17919 10.1381 105.722 4.03932 245C-2.2979 389.723 124.386 518.358 271 504.17C330.648 498.398 386.152 474.901 429 432C440.874 420.111 460.034 401.877 464 385Z" fill="#D9A509"/>
<path d="M238 9.42437C179.495 17.1061 127.146 34.9663 83 76.0895C61.4311 96.1814 43.8875 120.667 30.7531 147C-38.6549 286.156 42.3058 458.951 193 496.625C223.149 504.162 254.254 505.761 285 501.718C402.28 486.297 494.784 385.201 499.961 267C505.185 147.7 419.141 37.6324 302 14.1998C281.586 10.1163 258.812 6.69173 238 9.42437Z" fill="#E9C34F"/>
<path d="M237 43.4244C190.961 49.4693 148.551 62.9919 112.424 93.7137C93.0292 110.208 77.4745 130.887 65.1397 153C17.0868 239.146 36.9118 355.07 112.424 419.286C157.603 457.706 219.29 475.759 278 468.715C310.248 464.845 341.654 453.912 369 436.308C472.021 369.986 498.485 219.566 420.951 123.196C393.682 89.3032 356.445 64.7217 315 51.9753C290.782 44.527 262.322 40.0997 237 43.4244Z" fill="#D7A301"/>
<path d="M244 51.4244C202.513 56.8743 164.363 68.3984 130.59 94.3411C110.479 109.789 93.7858 129.539 80.4252 151C27.0316 236.765 48.468 352.528 126.424 416.28C171.656 453.27 231.515 468.865 289 460.715C317.508 456.673 344.537 445.735 369 430.796C388.527 418.872 405.676 402.925 419.789 385C490.039 295.777 473.749 158.691 381 91.4252C361.379 77.195 339.327 65.9883 316 59.2909C293.481 52.8256 267.446 48.3445 244 51.4244Z" fill="#E9C34F"/>
<path d="M464 128C472.459 151.238 485.704 171.583 492.116 196C504.46 243.008 501.551 292.221 485.656 338C479.955 354.418 469.861 368.899 464 385C476.028 374.696 482.751 351.693 487.667 337C504.455 286.817 505.791 231.503 489.33 181C484.072 164.866 477.229 139.332 464 128Z" fill="#D9A505"/>
<path d="M515 270C514.997 298.65 506.058 327.902 494.85 354C423.644 519.802 185.051 556.997 66.7184 421C50.0633 401.859 35.5928 380.398 25.5787 357C14.2429 330.513 5.00321 301.087 5 272H4V512H516V341V292L515 270Z" fill="white"/>
</g>
<defs>
<filter id="filter0_d_2_2" x="0" y="0" width="520" height="520" filterUnits="userSpaceOnUse" color-interpolation-filters="sRGB">
<feFlood flood-opacity="0" result="BackgroundImageFix"/>
<feColorMatrix in="SourceAlpha" type="matrix" values="0 0 0 0 0 0 0 0 0 0 0 0 0 0 0 0 0 0 127 0" result="hardAlpha"/>
<feOffset dy="4"/>
<feGaussianBlur stdDeviation="2"/>
<feComposite in2="hardAlpha" operator="out"/>
<feColorMatrix type="matrix" values="0 0 0 0 0 0 0 0 0 0 0 0 0 0 0 0 0 0 0.25 0"/>
<feBlend mode="normal" in2="BackgroundImageFix" result="effect1_dropShadow_2_2"/>
<feBlend mode="normal" in="SourceGraphic" in2="effect1_dropShadow_2_2" result="shape"/>
</filter>
<clipPath id="clip0_2_2">
<rect width="512" height="512" fill="white" transform="translate(4)"/>
</clipPath>
</defs>
</svg>
